<mxfile host="app.diagrams.net" agent="Mozilla/5.0 (Macintosh; Intel Mac OS X 10_15_7) AppleWebKit/605.1.15 (KHTML, like Gecko) Version/18.5 Safari/605.1.15" version="28.1.2">
  <diagram name="Page-1" id="sNauW_t54tCysDLgr2Dm">
    <mxGraphModel dx="849" dy="563" grid="1" gridSize="10" guides="1" tooltips="1" connect="1" arrows="1" fold="1" page="1" pageScale="1" pageWidth="827" pageHeight="1169" math="0" shadow="0">
      <root>
        <mxCell id="0" />
        <mxCell id="1" parent="0" />
        <mxCell id="FacBM-iOfbhJ3n8tUQV5-1" value="&lt;div style=&quot;text-align: start; color: rgb(0, 0, 0); background-color: rgb(255, 255, 254); font-family: Menlo, Monaco, &amp;quot;Courier New&amp;quot;, monospace; line-height: 18px; white-space: pre;&quot;&gt;&lt;span style=&quot;color: rgb(162, 40, 137);&quot;&gt;Cloud&lt;/span&gt; &lt;span style=&quot;color: rgb(162, 40, 137);&quot;&gt;Process&lt;/span&gt; &lt;span style=&quot;color: rgb(162, 40, 137);&quot;&gt;Execution&lt;/span&gt;&amp;nbsp;&lt;/div&gt;&lt;div style=&quot;color: rgb(0, 0, 0); background-color: rgb(255, 255, 254); font-family: Menlo, Monaco, &amp;quot;Courier New&amp;quot;, monospace; line-height: 18px; white-space: pre;&quot;&gt;&lt;span style=&quot;color: rgb(162, 40, 137);&quot;&gt;Engine&lt;/span&gt; &lt;span style=&quot;font-weight: bold;&quot;&gt;(&lt;/span&gt;&lt;span style=&quot;color: rgb(170, 133, 0);&quot;&gt;CPEE&lt;/span&gt;&lt;span style=&quot;font-weight: bold;&quot;&gt;)&lt;/span&gt;&lt;br&gt;&lt;/div&gt;" style="whiteSpace=wrap;html=1;aspect=fixed;" parent="1" vertex="1">
          <mxGeometry x="40" y="240" width="200" height="200" as="geometry" />
        </mxCell>
        <mxCell id="_XdUhHh0zTV-7-86hAuY-1" value="Cloud Process Execution Engine (CPEE)" style="swimlane;startSize=20;horizontal=1;childLayout=flowLayout;flowOrientation=north;resizable=0;interRankCellSpacing=50;containerType=tree;fontSize=12;" vertex="1" parent="1">
          <mxGeometry x="30" y="510" width="270" height="280" as="geometry" />
        </mxCell>
        <mxCell id="_XdUhHh0zTV-7-86hAuY-2" value="Start" style="whiteSpace=wrap;html=1;" vertex="1" parent="_XdUhHh0zTV-7-86hAuY-1">
          <mxGeometry x="85" y="40" width="100" height="40" as="geometry" />
        </mxCell>
        <mxCell id="_XdUhHh0zTV-7-86hAuY-3" value="Task" style="whiteSpace=wrap;html=1;" vertex="1" parent="_XdUhHh0zTV-7-86hAuY-1">
          <mxGeometry x="20" y="130" width="100" height="40" as="geometry" />
        </mxCell>
        <mxCell id="_XdUhHh0zTV-7-86hAuY-4" value="" style="html=1;rounded=1;curved=0;sourcePerimeterSpacing=0;targetPerimeterSpacing=0;startSize=6;endSize=6;noEdgeStyle=1;orthogonal=1;" edge="1" parent="_XdUhHh0zTV-7-86hAuY-1" source="_XdUhHh0zTV-7-86hAuY-2" target="_XdUhHh0zTV-7-86hAuY-3">
          <mxGeometry relative="1" as="geometry">
            <Array as="points">
              <mxPoint x="112.5" y="92" />
              <mxPoint x="70" y="118" />
            </Array>
          </mxGeometry>
        </mxCell>
        <mxCell id="_XdUhHh0zTV-7-86hAuY-5" value="Task" style="whiteSpace=wrap;html=1;" vertex="1" parent="_XdUhHh0zTV-7-86hAuY-1">
          <mxGeometry x="150" y="130" width="100" height="40" as="geometry" />
        </mxCell>
        <mxCell id="_XdUhHh0zTV-7-86hAuY-6" value="" style="html=1;rounded=1;curved=0;sourcePerimeterSpacing=0;targetPerimeterSpacing=0;startSize=6;endSize=6;noEdgeStyle=1;orthogonal=1;" edge="1" parent="_XdUhHh0zTV-7-86hAuY-1" source="_XdUhHh0zTV-7-86hAuY-2" target="_XdUhHh0zTV-7-86hAuY-5">
          <mxGeometry relative="1" as="geometry">
            <Array as="points">
              <mxPoint x="157.5" y="92" />
              <mxPoint x="200" y="118" />
            </Array>
          </mxGeometry>
        </mxCell>
        <mxCell id="_XdUhHh0zTV-7-86hAuY-7" value="End" style="whiteSpace=wrap;html=1;" vertex="1" parent="_XdUhHh0zTV-7-86hAuY-1">
          <mxGeometry x="85" y="220" width="100" height="40" as="geometry" />
        </mxCell>
        <mxCell id="_XdUhHh0zTV-7-86hAuY-8" value="" style="html=1;rounded=1;curved=0;sourcePerimeterSpacing=0;targetPerimeterSpacing=0;startSize=6;endSize=6;noEdgeStyle=1;orthogonal=1;" edge="1" parent="_XdUhHh0zTV-7-86hAuY-1" source="_XdUhHh0zTV-7-86hAuY-3" target="_XdUhHh0zTV-7-86hAuY-7">
          <mxGeometry relative="1" as="geometry">
            <Array as="points">
              <mxPoint x="70" y="182" />
              <mxPoint x="112.5" y="208" />
            </Array>
          </mxGeometry>
        </mxCell>
        <mxCell id="_XdUhHh0zTV-7-86hAuY-9" value="" style="html=1;rounded=1;curved=0;sourcePerimeterSpacing=0;targetPerimeterSpacing=0;startSize=6;endSize=6;noEdgeStyle=1;orthogonal=1;" edge="1" parent="_XdUhHh0zTV-7-86hAuY-1" source="_XdUhHh0zTV-7-86hAuY-5" target="_XdUhHh0zTV-7-86hAuY-7">
          <mxGeometry relative="1" as="geometry">
            <Array as="points">
              <mxPoint x="200" y="182" />
              <mxPoint x="157.5" y="208" />
            </Array>
          </mxGeometry>
        </mxCell>
        <mxCell id="_XdUhHh0zTV-7-86hAuY-10" value="Lab Server" style="swimlane;startSize=20;horizontal=1;childLayout=flowLayout;flowOrientation=north;resizable=0;interRankCellSpacing=50;containerType=tree;fontSize=12;" vertex="1" parent="1">
          <mxGeometry x="330" y="510" width="270" height="280" as="geometry" />
        </mxCell>
        <mxCell id="_XdUhHh0zTV-7-86hAuY-11" value="Data Service" style="whiteSpace=wrap;html=1;" vertex="1" parent="_XdUhHh0zTV-7-86hAuY-10">
          <mxGeometry x="85" y="40" width="100" height="40" as="geometry" />
        </mxCell>
        <mxCell id="_XdUhHh0zTV-7-86hAuY-12" value="Task" style="whiteSpace=wrap;html=1;" vertex="1" parent="_XdUhHh0zTV-7-86hAuY-10">
          <mxGeometry x="20" y="130" width="100" height="40" as="geometry" />
        </mxCell>
        <mxCell id="_XdUhHh0zTV-7-86hAuY-13" value="" style="html=1;rounded=1;curved=0;sourcePerimeterSpacing=0;targetPerimeterSpacing=0;startSize=6;endSize=6;noEdgeStyle=1;orthogonal=1;" edge="1" parent="_XdUhHh0zTV-7-86hAuY-10" source="_XdUhHh0zTV-7-86hAuY-11" target="_XdUhHh0zTV-7-86hAuY-12">
          <mxGeometry relative="1" as="geometry">
            <Array as="points">
              <mxPoint x="112.5" y="92" />
              <mxPoint x="70" y="118" />
            </Array>
          </mxGeometry>
        </mxCell>
        <mxCell id="_XdUhHh0zTV-7-86hAuY-14" value="Task" style="whiteSpace=wrap;html=1;" vertex="1" parent="_XdUhHh0zTV-7-86hAuY-10">
          <mxGeometry x="150" y="130" width="100" height="40" as="geometry" />
        </mxCell>
        <mxCell id="_XdUhHh0zTV-7-86hAuY-15" value="" style="html=1;rounded=1;curved=0;sourcePerimeterSpacing=0;targetPerimeterSpacing=0;startSize=6;endSize=6;noEdgeStyle=1;orthogonal=1;" edge="1" parent="_XdUhHh0zTV-7-86hAuY-10" source="_XdUhHh0zTV-7-86hAuY-11" target="_XdUhHh0zTV-7-86hAuY-14">
          <mxGeometry relative="1" as="geometry">
            <Array as="points">
              <mxPoint x="157.5" y="92" />
              <mxPoint x="200" y="118" />
            </Array>
          </mxGeometry>
        </mxCell>
        <mxCell id="_XdUhHh0zTV-7-86hAuY-16" value="End" style="whiteSpace=wrap;html=1;" vertex="1" parent="_XdUhHh0zTV-7-86hAuY-10">
          <mxGeometry x="85" y="220" width="100" height="40" as="geometry" />
        </mxCell>
        <mxCell id="_XdUhHh0zTV-7-86hAuY-17" value="" style="html=1;rounded=1;curved=0;sourcePerimeterSpacing=0;targetPerimeterSpacing=0;startSize=6;endSize=6;noEdgeStyle=1;orthogonal=1;" edge="1" parent="_XdUhHh0zTV-7-86hAuY-10" source="_XdUhHh0zTV-7-86hAuY-12" target="_XdUhHh0zTV-7-86hAuY-16">
          <mxGeometry relative="1" as="geometry">
            <Array as="points">
              <mxPoint x="70" y="182" />
              <mxPoint x="112.5" y="208" />
            </Array>
          </mxGeometry>
        </mxCell>
        <mxCell id="_XdUhHh0zTV-7-86hAuY-18" value="" style="html=1;rounded=1;curved=0;sourcePerimeterSpacing=0;targetPerimeterSpacing=0;startSize=6;endSize=6;noEdgeStyle=1;orthogonal=1;" edge="1" parent="_XdUhHh0zTV-7-86hAuY-10" source="_XdUhHh0zTV-7-86hAuY-14" target="_XdUhHh0zTV-7-86hAuY-16">
          <mxGeometry relative="1" as="geometry">
            <Array as="points">
              <mxPoint x="200" y="182" />
              <mxPoint x="157.5" y="208" />
            </Array>
          </mxGeometry>
        </mxCell>
        <mxCell id="_XdUhHh0zTV-7-86hAuY-19" value="Cottonbot Sensors" style="swimlane;startSize=20;horizontal=1;childLayout=flowLayout;flowOrientation=north;resizable=0;interRankCellSpacing=50;containerType=tree;fontSize=12;" vertex="1" parent="1">
          <mxGeometry x="190" y="860" width="140" height="100" as="geometry" />
        </mxCell>
        <mxCell id="_XdUhHh0zTV-7-86hAuY-20" value="IR Temperature Sensor" style="whiteSpace=wrap;html=1;" vertex="1" parent="_XdUhHh0zTV-7-86hAuY-19">
          <mxGeometry x="20" y="40" width="100" height="40" as="geometry" />
        </mxCell>
        <mxCell id="_XdUhHh0zTV-7-86hAuY-33" value="IR Temperature Sensor" style="whiteSpace=wrap;html=1;" vertex="1" parent="1">
          <mxGeometry x="300" y="920" width="100" height="40" as="geometry" />
        </mxCell>
        <mxCell id="_XdUhHh0zTV-7-86hAuY-34" value="Cottonbot Sensors" style="swimlane;startSize=20;horizontal=1;childLayout=treeLayout;horizontalTree=0;sortEdges=1;resizable=0;containerType=tree;fontSize=12;movable=0;rotatable=0;deletable=0;editable=0;locked=1;connectable=0;" vertex="1" parent="1">
          <mxGeometry x="80" y="1260" width="392" height="190" as="geometry" />
        </mxCell>
        <mxCell id="_XdUhHh0zTV-7-86hAuY-35" value="&lt;div style=&quot;text-align: start; color: rgb(0, 0, 0); background-color: rgb(255, 255, 254); font-family: Menlo, Monaco, &amp;quot;Courier New&amp;quot;, monospace; line-height: 18px; white-space: pre;&quot;&gt;&lt;div style=&quot;color: rgb(0, 0, 0); background-color: rgb(255, 255, 254); line-height: 18px;&quot;&gt;&lt;span style=&quot;color: rgb(162, 40, 137);&quot;&gt;Environment&lt;/span&gt; &lt;span style=&quot;color: rgb(162, 40, 137);&quot;&gt;HDC3021&lt;/span&gt;&lt;/div&gt;&lt;/div&gt;" style="whiteSpace=wrap;html=1;" vertex="1" parent="_XdUhHh0zTV-7-86hAuY-34">
          <mxGeometry x="20" y="40" width="100" height="40" as="geometry" />
        </mxCell>
        <mxCell id="_XdUhHh0zTV-7-86hAuY-40" value="&lt;div style=&quot;text-align: start; color: rgb(0, 0, 0); background-color: rgb(255, 255, 254); font-family: Menlo, Monaco, &amp;quot;Courier New&amp;quot;, monospace; line-height: 18px; white-space: pre;&quot;&gt;&lt;div style=&quot;color: rgb(0, 0, 0); background-color: rgb(255, 255, 254); line-height: 18px;&quot;&gt;&lt;span style=&quot;color: rgb(162, 40, 137);&quot;&gt;Machine&lt;/span&gt; &lt;span style=&quot;color: rgb(162, 40, 137);&quot;&gt;HDC3021&lt;/span&gt;&lt;/div&gt;&lt;/div&gt;" style="whiteSpace=wrap;html=1;" vertex="1" parent="_XdUhHh0zTV-7-86hAuY-34">
          <mxGeometry x="149.9999999999996" y="40" width="100" height="40" as="geometry" />
        </mxCell>
        <mxCell id="_XdUhHh0zTV-7-86hAuY-42" value="&lt;div style=&quot;text-align: start; color: rgb(0, 0, 0); background-color: rgb(255, 255, 254); font-family: Menlo, Monaco, &amp;quot;Courier New&amp;quot;, monospace; line-height: 18px; white-space: pre;&quot;&gt;&lt;div style=&quot;color: rgb(0, 0, 0); background-color: rgb(255, 255, 254); line-height: 18px;&quot;&gt;&lt;div style=&quot;color: rgb(0, 0, 0); background-color: rgb(255, 255, 254); line-height: 18px;&quot;&gt;&lt;span style=&quot;color: rgb(162, 40, 137);&quot;&gt;IR Temp&lt;/span&gt; &lt;span style=&quot;color: rgb(162, 40, 137);&quot;&gt;Sensor&lt;/span&gt;&lt;/div&gt;&lt;/div&gt;&lt;/div&gt;" style="whiteSpace=wrap;html=1;" vertex="1" parent="_XdUhHh0zTV-7-86hAuY-34">
          <mxGeometry x="271.9999999999996" y="40" width="100" height="40" as="geometry" />
        </mxCell>
        <mxCell id="_XdUhHh0zTV-7-86hAuY-78" value="&lt;div style=&quot;text-align: start; color: rgb(0, 0, 0); background-color: rgb(255, 255, 254); font-family: Menlo, Monaco, &amp;quot;Courier New&amp;quot;, monospace; font-size: 12px; line-height: 18px; white-space: pre;&quot;&gt;&lt;span style=&quot;color: rgb(162, 40, 137);&quot;&gt;I&lt;/span&gt;²&lt;span style=&quot;color: rgb(162, 40, 137);&quot;&gt;C&lt;/span&gt;&lt;/div&gt;" style="edgeStyle=orthogonalEdgeStyle;rounded=0;orthogonalLoop=1;jettySize=auto;html=1;exitX=0.5;exitY=1;exitDx=0;exitDy=0;entryX=0.5;entryY=0;entryDx=0;entryDy=0;" edge="1" parent="1" source="_XdUhHh0zTV-7-86hAuY-36" target="_XdUhHh0zTV-7-86hAuY-75">
          <mxGeometry x="-0.6" relative="1" as="geometry">
            <mxPoint as="offset" />
          </mxGeometry>
        </mxCell>
        <mxCell id="_XdUhHh0zTV-7-86hAuY-36" value="&lt;div style=&quot;text-align: start; color: rgb(0, 0, 0); background-color: rgb(255, 255, 254); font-family: Menlo, Monaco, &amp;quot;Courier New&amp;quot;, monospace; line-height: 18px; white-space: pre;&quot;&gt;&lt;span style=&quot;color: rgb(162, 40, 137);&quot;&gt;TCA9548A&lt;/span&gt; &lt;span style=&quot;color: rgb(162, 40, 137);&quot;&gt;Multiplexer&lt;/span&gt;&lt;/div&gt;" style="whiteSpace=wrap;html=1;" vertex="1" parent="1">
          <mxGeometry x="150" y="1440" width="100" height="40" as="geometry" />
        </mxCell>
        <mxCell id="_XdUhHh0zTV-7-86hAuY-41" style="edgeStyle=orthogonalEdgeStyle;rounded=0;orthogonalLoop=1;jettySize=auto;html=1;entryX=0.5;entryY=0;entryDx=0;entryDy=0;" edge="1" parent="1" source="_XdUhHh0zTV-7-86hAuY-40" target="_XdUhHh0zTV-7-86hAuY-36">
          <mxGeometry relative="1" as="geometry" />
        </mxCell>
        <mxCell id="_XdUhHh0zTV-7-86hAuY-37" value="" style="edgeStyle=elbowEdgeStyle;elbow=vertical;html=1;rounded=1;curved=0;sourcePerimeterSpacing=0;targetPerimeterSpacing=0;startSize=6;endSize=6;" edge="1" parent="1" source="_XdUhHh0zTV-7-86hAuY-35" target="_XdUhHh0zTV-7-86hAuY-36">
          <mxGeometry relative="1" as="geometry" />
        </mxCell>
        <mxCell id="_XdUhHh0zTV-7-86hAuY-45" style="edgeStyle=orthogonalEdgeStyle;rounded=1;orthogonalLoop=1;jettySize=auto;html=1;exitX=0.5;exitY=1;exitDx=0;exitDy=0;entryX=0.5;entryY=0;entryDx=0;entryDy=0;curved=0;" edge="1" parent="1" source="_XdUhHh0zTV-7-86hAuY-42" target="_XdUhHh0zTV-7-86hAuY-36">
          <mxGeometry relative="1" as="geometry" />
        </mxCell>
        <mxCell id="_XdUhHh0zTV-7-86hAuY-69" style="edgeStyle=orthogonalEdgeStyle;rounded=0;orthogonalLoop=1;jettySize=auto;html=1;exitX=0.5;exitY=1;exitDx=0;exitDy=0;entryX=0;entryY=0.5;entryDx=0;entryDy=0;startArrow=classic;startFill=1;" edge="1" parent="1" source="_XdUhHh0zTV-7-86hAuY-77" target="_XdUhHh0zTV-7-86hAuY-66">
          <mxGeometry relative="1" as="geometry">
            <mxPoint x="280" y="1890" as="targetPoint" />
          </mxGeometry>
        </mxCell>
        <mxCell id="_XdUhHh0zTV-7-86hAuY-67" style="edgeStyle=orthogonalEdgeStyle;rounded=0;orthogonalLoop=1;jettySize=auto;html=1;exitX=0.5;exitY=1;exitDx=0;exitDy=0;entryX=0;entryY=0.5;entryDx=0;entryDy=0;startArrow=classic;startFill=1;" edge="1" parent="1" source="_XdUhHh0zTV-7-86hAuY-75" target="_XdUhHh0zTV-7-86hAuY-66">
          <mxGeometry relative="1" as="geometry" />
        </mxCell>
        <mxCell id="_XdUhHh0zTV-7-86hAuY-68" style="edgeStyle=orthogonalEdgeStyle;rounded=0;orthogonalLoop=1;jettySize=auto;html=1;exitX=0.5;exitY=1;exitDx=0;exitDy=0;entryX=0;entryY=0.5;entryDx=0;entryDy=0;startArrow=classic;startFill=1;" edge="1" parent="1" source="_XdUhHh0zTV-7-86hAuY-76" target="_XdUhHh0zTV-7-86hAuY-66">
          <mxGeometry relative="1" as="geometry" />
        </mxCell>
        <mxCell id="_XdUhHh0zTV-7-86hAuY-70" value="SSH Tunnel" style="edgeLabel;html=1;align=center;verticalAlign=middle;resizable=0;points=[];" vertex="1" connectable="0" parent="_XdUhHh0zTV-7-86hAuY-68">
          <mxGeometry x="0.7611" y="-1" relative="1" as="geometry">
            <mxPoint x="-40" y="-1" as="offset" />
          </mxGeometry>
        </mxCell>
        <mxCell id="_XdUhHh0zTV-7-86hAuY-74" value="Edge Device (Raspberry Pi 3)" style="swimlane;startSize=20;horizontal=1;childLayout=treeLayout;horizontalTree=0;sortEdges=1;resizable=1;containerType=tree;fontSize=12;movable=1;rotatable=1;deletable=1;editable=1;locked=0;connectable=1;" vertex="1" parent="1">
          <mxGeometry x="80" y="1540" width="470" height="110" as="geometry" />
        </mxCell>
        <mxCell id="_XdUhHh0zTV-7-86hAuY-75" value="&lt;div style=&quot;text-align: start; color: rgb(0, 0, 0); background-color: rgb(255, 255, 254); font-family: Menlo, Monaco, &amp;quot;Courier New&amp;quot;, monospace; line-height: 18px; white-space: pre;&quot;&gt;&lt;div style=&quot;color: rgb(0, 0, 0); background-color: rgb(255, 255, 254); line-height: 18px;&quot;&gt;&lt;span style=&quot;color: rgb(162, 40, 137);&quot;&gt;CC Sensor&lt;/span&gt;&lt;span style=&quot;color: rgb(0, 0, 0);&quot;&gt; &lt;/span&gt;&lt;span style=&quot;color: rgb(162, 40, 137);&quot;&gt;Services&lt;/span&gt;&lt;br&gt;&lt;/div&gt;&lt;/div&gt;" style="whiteSpace=wrap;html=1;" vertex="1" parent="_XdUhHh0zTV-7-86hAuY-74">
          <mxGeometry x="20" y="40" width="100" height="40" as="geometry" />
        </mxCell>
        <mxCell id="_XdUhHh0zTV-7-86hAuY-76" value="&lt;div style=&quot;text-align: start; color: rgb(0, 0, 0); background-color: rgb(255, 255, 254); font-family: Menlo, Monaco, &amp;quot;Courier New&amp;quot;, monospace; line-height: 18px; white-space: pre;&quot;&gt;&lt;div style=&quot;color: rgb(0, 0, 0); background-color: rgb(255, 255, 254); line-height: 18px;&quot;&gt;&lt;span style=&quot;caret-color: rgb(251, 146, 230); color: rgb(251, 146, 230);&quot;&gt;CC Log Registry&lt;/span&gt;&lt;br&gt;&lt;/div&gt;&lt;/div&gt;" style="whiteSpace=wrap;html=1;" vertex="1" parent="_XdUhHh0zTV-7-86hAuY-74">
          <mxGeometry x="159.9999999999996" y="40" width="100" height="40" as="geometry" />
        </mxCell>
        <mxCell id="_XdUhHh0zTV-7-86hAuY-77" value="&lt;div style=&quot;text-align: start; color: rgb(0, 0, 0); background-color: rgb(255, 255, 254); font-family: Menlo, Monaco, &amp;quot;Courier New&amp;quot;, monospace; line-height: 18px; white-space: pre;&quot;&gt;&lt;div style=&quot;color: rgb(0, 0, 0); background-color: rgb(255, 255, 254); line-height: 18px;&quot;&gt;&lt;div style=&quot;color: rgb(0, 0, 0); background-color: rgb(255, 255, 254); line-height: 18px;&quot;&gt;&lt;span style=&quot;caret-color: rgb(154, 63, 136); color: rgb(154, 63, 136);&quot;&gt;Digital Twin Model Service&lt;/span&gt;&lt;br&gt;&lt;/div&gt;&lt;/div&gt;&lt;/div&gt;" style="whiteSpace=wrap;html=1;" vertex="1" parent="_XdUhHh0zTV-7-86hAuY-74">
          <mxGeometry x="324.9999999999996" y="40" width="100" height="40" as="geometry" />
        </mxCell>
        <mxCell id="_XdUhHh0zTV-7-86hAuY-79" value="Lab Server" style="swimlane;startSize=20;horizontal=1;childLayout=treeLayout;horizontalTree=0;sortEdges=1;resizable=1;containerType=tree;fontSize=12;movable=1;rotatable=1;deletable=1;editable=1;locked=0;connectable=1;" vertex="1" parent="1">
          <mxGeometry x="620" y="1640" width="320" height="140" as="geometry" />
        </mxCell>
        <mxCell id="_XdUhHh0zTV-7-86hAuY-66" value="&lt;div style=&quot;text-align: start; background-color: rgb(255, 255, 254); font-family: Menlo, Monaco, &amp;quot;Courier New&amp;quot;, monospace; line-height: 18px; white-space: pre; color: rgb(0, 0, 0);&quot;&gt;&lt;div style=&quot;background-color: rgb(255, 255, 254); line-height: 18px; color: rgb(0, 0, 0);&quot;&gt;&lt;font color=&quot;#fb92e6&quot;&gt;&lt;span style=&quot;caret-color: rgb(251, 146, 230);&quot;&gt;Data Service&lt;/span&gt;&lt;/font&gt;&lt;/div&gt;&lt;/div&gt;" style="whiteSpace=wrap;html=1;" vertex="1" parent="_XdUhHh0zTV-7-86hAuY-79">
          <mxGeometry x="20" y="40" width="280" height="60" as="geometry" />
        </mxCell>
        <mxCell id="_XdUhHh0zTV-7-86hAuY-83" value="Cloud Process Execution Engine (CPEE)" style="swimlane;startSize=20;horizontal=1;childLayout=treeLayout;horizontalTree=0;sortEdges=1;resizable=1;containerType=tree;fontSize=12;movable=1;rotatable=1;deletable=1;editable=1;locked=0;connectable=1;" vertex="1" parent="1">
          <mxGeometry x="605" y="1260" width="335" height="130" as="geometry" />
        </mxCell>
        <mxCell id="_XdUhHh0zTV-7-86hAuY-84" value="&lt;div style=&quot;text-align: start; background-color: rgb(255, 255, 254); font-family: Menlo, Monaco, &amp;quot;Courier New&amp;quot;, monospace; line-height: 18px; white-space: pre; color: rgb(0, 0, 0);&quot;&gt;&lt;div style=&quot;background-color: rgb(255, 255, 254); line-height: 18px; color: rgb(0, 0, 0);&quot;&gt;&lt;font color=&quot;#fb92e6&quot;&gt;&lt;span style=&quot;caret-color: rgb(251, 146, 230);&quot;&gt;DT Process Model&lt;/span&gt;&lt;/font&gt;&lt;/div&gt;&lt;/div&gt;" style="whiteSpace=wrap;html=1;" vertex="1" parent="_XdUhHh0zTV-7-86hAuY-83">
          <mxGeometry x="35" y="40" width="280" height="60" as="geometry" />
        </mxCell>
        <mxCell id="_XdUhHh0zTV-7-86hAuY-86" style="edgeStyle=orthogonalEdgeStyle;rounded=0;orthogonalLoop=1;jettySize=auto;html=1;exitX=0;exitY=1;exitDx=0;exitDy=0;entryX=0;entryY=0;entryDx=0;entryDy=0;" edge="1" parent="1" source="_XdUhHh0zTV-7-86hAuY-84" target="_XdUhHh0zTV-7-86hAuY-66">
          <mxGeometry relative="1" as="geometry" />
        </mxCell>
        <mxCell id="_XdUhHh0zTV-7-86hAuY-88" style="edgeStyle=orthogonalEdgeStyle;rounded=0;orthogonalLoop=1;jettySize=auto;html=1;exitX=0.25;exitY=0;exitDx=0;exitDy=0;entryX=0.25;entryY=1;entryDx=0;entryDy=0;startArrow=classic;startFill=1;endArrow=none;endFill=0;" edge="1" parent="1" source="_XdUhHh0zTV-7-86hAuY-66" target="_XdUhHh0zTV-7-86hAuY-84">
          <mxGeometry relative="1" as="geometry" />
        </mxCell>
        <mxCell id="_XdUhHh0zTV-7-86hAuY-89" value="&lt;div style=&quot;text-align: start; color: rgb(0, 0, 0); background-color: rgb(255, 255, 254); font-family: Menlo, Monaco, &amp;quot;Courier New&amp;quot;, monospace; font-size: 12px; line-height: 18px; white-space: pre;&quot;&gt;&lt;span style=&quot;color: rgb(162, 40, 137);&quot;&gt;GET&lt;/span&gt; /&lt;span style=&quot;color: rgb(162, 40, 137);&quot;&gt;environment&lt;/span&gt;&lt;br&gt;&lt;/div&gt;" style="edgeLabel;html=1;align=center;verticalAlign=middle;resizable=0;points=[];" vertex="1" connectable="0" parent="_XdUhHh0zTV-7-86hAuY-88">
          <mxGeometry x="0.1641" y="4" relative="1" as="geometry">
            <mxPoint y="-24" as="offset" />
          </mxGeometry>
        </mxCell>
        <mxCell id="_XdUhHh0zTV-7-86hAuY-90" style="edgeStyle=orthogonalEdgeStyle;rounded=0;orthogonalLoop=1;jettySize=auto;html=1;exitX=0.5;exitY=1;exitDx=0;exitDy=0;entryX=0.5;entryY=0;entryDx=0;entryDy=0;" edge="1" parent="1" source="_XdUhHh0zTV-7-86hAuY-84" target="_XdUhHh0zTV-7-86hAuY-66">
          <mxGeometry relative="1" as="geometry" />
        </mxCell>
        <mxCell id="_XdUhHh0zTV-7-86hAuY-93" value="&lt;div style=&quot;text-align: start; color: rgb(0, 0, 0); background-color: rgb(255, 255, 254); font-family: Menlo, Monaco, &amp;quot;Courier New&amp;quot;, monospace; font-size: 12px; line-height: 18px; white-space: pre;&quot;&gt;&lt;span style=&quot;color: rgb(162, 40, 137);&quot;&gt;GET&lt;/span&gt; /&lt;span style=&quot;color: rgb(162, 40, 137);&quot;&gt;plug&lt;/span&gt;&lt;/div&gt;" style="edgeLabel;html=1;align=center;verticalAlign=middle;resizable=0;points=[];" vertex="1" connectable="0" parent="_XdUhHh0zTV-7-86hAuY-90">
          <mxGeometry x="0.0464" y="1" relative="1" as="geometry">
            <mxPoint x="-1" y="-18" as="offset" />
          </mxGeometry>
        </mxCell>
        <mxCell id="_XdUhHh0zTV-7-86hAuY-91" style="edgeStyle=orthogonalEdgeStyle;rounded=0;orthogonalLoop=1;jettySize=auto;html=1;exitX=0.75;exitY=1;exitDx=0;exitDy=0;entryX=0.75;entryY=0;entryDx=0;entryDy=0;startArrow=none;startFill=0;" edge="1" parent="1" source="_XdUhHh0zTV-7-86hAuY-84" target="_XdUhHh0zTV-7-86hAuY-66">
          <mxGeometry relative="1" as="geometry" />
        </mxCell>
        <mxCell id="_XdUhHh0zTV-7-86hAuY-92" style="edgeStyle=orthogonalEdgeStyle;rounded=0;orthogonalLoop=1;jettySize=auto;html=1;exitX=1;exitY=1;exitDx=0;exitDy=0;entryX=1;entryY=0;entryDx=0;entryDy=0;" edge="1" parent="1" source="_XdUhHh0zTV-7-86hAuY-84" target="_XdUhHh0zTV-7-86hAuY-66">
          <mxGeometry relative="1" as="geometry" />
        </mxCell>
        <mxCell id="_XdUhHh0zTV-7-86hAuY-95" value="&lt;div style=&quot;text-align: start; color: rgb(0, 0, 0); background-color: rgb(255, 255, 254); font-family: Menlo, Monaco, &amp;quot;Courier New&amp;quot;, monospace; font-size: 12px; line-height: 18px; white-space: pre;&quot;&gt;&lt;span style=&quot;color: rgb(136, 140, 137);&quot;&gt;GET /quality&lt;/span&gt;&lt;/div&gt;" style="edgeLabel;html=1;align=center;verticalAlign=middle;resizable=0;points=[];" vertex="1" connectable="0" parent="_XdUhHh0zTV-7-86hAuY-92">
          <mxGeometry x="-0.0852" y="1" relative="1" as="geometry">
            <mxPoint y="84" as="offset" />
          </mxGeometry>
        </mxCell>
        <mxCell id="_XdUhHh0zTV-7-86hAuY-96" value="&lt;div style=&quot;text-align: start; color: rgb(0, 0, 0); background-color: rgb(255, 255, 254); font-family: Menlo, Monaco, &amp;quot;Courier New&amp;quot;, monospace; font-size: 12px; line-height: 18px; white-space: pre;&quot;&gt;&lt;span style=&quot;color: rgb(136, 140, 137);&quot;&gt;GET /maintenance&lt;/span&gt;&lt;/div&gt;" style="edgeLabel;html=1;align=center;verticalAlign=middle;resizable=0;points=[];" vertex="1" connectable="0" parent="_XdUhHh0zTV-7-86hAuY-92">
          <mxGeometry x="0.1253" y="1" relative="1" as="geometry">
            <mxPoint x="9" y="70" as="offset" />
          </mxGeometry>
        </mxCell>
        <mxCell id="_XdUhHh0zTV-7-86hAuY-97" value="&lt;div style=&quot;text-align: start; background-color: rgb(255, 255, 254); font-family: Menlo, Monaco, &amp;quot;Courier New&amp;quot;, monospace; font-size: 12px; line-height: 18px; white-space: pre; color: rgb(0, 0, 0);&quot;&gt;&lt;span style=&quot;color: rgb(162, 40, 137);&quot;&gt;GET&lt;/span&gt; /&lt;font color=&quot;#fb92e6&quot;&gt;&lt;span style=&quot;caret-color: rgb(251, 146, 230);&quot;&gt;params&lt;/span&gt;&lt;/font&gt;&lt;/div&gt;" style="edgeLabel;html=1;align=center;verticalAlign=middle;resizable=0;points=[];" vertex="1" connectable="0" parent="1">
          <mxGeometry x="827" y="1480" as="geometry">
            <mxPoint x="27" y="67" as="offset" />
          </mxGeometry>
        </mxCell>
        <mxCell id="_XdUhHh0zTV-7-86hAuY-99" value="&lt;div style=&quot;text-align: start; color: rgb(0, 0, 0); background-color: rgb(255, 255, 254); font-family: Menlo, Monaco, &amp;quot;Courier New&amp;quot;, monospace; font-size: 12px; line-height: 18px; white-space: pre;&quot;&gt;&lt;span style=&quot;color: rgb(162, 40, 137);&quot;&gt;POST&lt;/span&gt; /&lt;span style=&quot;color: rgb(162, 40, 137);&quot;&gt;uuid&lt;/span&gt;&lt;br&gt;&lt;/div&gt;" style="edgeLabel;html=1;align=center;verticalAlign=middle;resizable=0;points=[];" vertex="1" connectable="0" parent="1">
          <mxGeometry x="670" y="1370" as="geometry">
            <mxPoint x="-29" y="60" as="offset" />
          </mxGeometry>
        </mxCell>
      </root>
    </mxGraphModel>
  </diagram>
</mxfile>
